<?xml version="1.0" encoding="iso-8859-1"?>
<!-- Generator: Adobe Illustrator 16.0.0, SVG Export Plug-In . SVG Version: 6.00 Build 0)  -->
<!DOCTYPE svg PUBLIC "-//W3C//DTD SVG 1.1//EN" "http://www.w3.org/Graphics/SVG/1.1/DTD/svg11.dtd">
<svg version="1.1" id="Capa_1" xmlns="http://www.w3.org/2000/svg" xmlns:xlink="http://www.w3.org/1999/xlink" x="0px" y="0px"
	 width="548.605px" height="548.605px" viewBox="0 0 548.605 548.605" style="enable-background:new 0 0 548.605 548.605;"
	 xml:space="preserve">
<g>
	<g>
		<circle cx="414.594" cy="73.801" r="38.379"/>
		<path d="M515.934,151.056c0,0-44.689-35.144-44.795-35.227c-5.729-4.504-12.123-1.515-18.299-0.061
			c-2.545,0.6-5.262,0.909-7.744,1.735c-6.059,2.026-12.084,4.156-18.055,6.432c-11.205,4.275-23.451,8.718-33.053,16.102
			c-1.754,1.346-3.539,2.849-4.68,4.773c-1.656,0.948-3.152,2.228-4.34,3.88l-25.648,35.625l-36.879,18.443
			c-6.803,3.399-9.559,11.671-6.156,18.473c2.414,4.826,7.275,7.613,12.326,7.613c2.068,0,4.17-0.468,6.146-1.459l39.912-19.958
			c1.992-0.995,3.715-2.46,5.016-4.272l18.229-25.318c6.654,17.032,15.354,36.971,21.096,49.866l-44.414,9.229
			c-6.49,1.347-11.373,6.723-12.096,13.314l-12.279,112.051c-0.307,2.791,0.217,5.459,1.281,7.852h27.859
			c0.623-1.406,1.098-2.902,1.275-4.516l11.068-101.001l48.062-9.988l11.9,10.915c-0.496,1.702-0.742,3.504-0.67,5.371l3.516,90.573
			c0.119,3.062,1.074,6.041,2.764,8.604l38.525,58.506h33.023c1.381-4.605,0.859-9.746-1.988-14.076l-38.869-59.025l-3.334-85.884
			c-0.062-1.573-0.355-3.085-0.818-4.517l-0.016-0.346l-16.998-117.309l27.428,21.57l4.369,49.728
			c0.631,7.167,6.641,12.564,13.703,12.562c0.404,0,0.814-0.019,1.221-0.055c7.576-0.667,13.176-7.344,12.512-14.923l-4.893-55.662
			C520.809,156.886,518.924,153.407,515.934,151.056z"/>
		<polygon points="438.883,382.393 329.164,382.393 329.164,322.633 219.442,322.633 219.442,259.423 0,259.423 0,264.623 
			0,413.287 0,511.879 548.605,513.184 547.459,511.879 548.605,511.879 548.605,440.852 438.883,440.852 		"/>
	</g>
</g>
<g>
</g>
<g>
</g>
<g>
</g>
<g>
</g>
<g>
</g>
<g>
</g>
<g>
</g>
<g>
</g>
<g>
</g>
<g>
</g>
<g>
</g>
<g>
</g>
<g>
</g>
<g>
</g>
<g>
</g>
</svg>
