<svg width="84" height="96" viewBox="0 0 84 96" fill="none" xmlns="http://www.w3.org/2000/svg">
<path d="M38.7358 94.7325L2.8327 73.7258C1.9719 73.2203 1.2572 72.4946 0.760083 71.6214C0.262969 70.7482 0.000873571 69.7581 1.2333e-05 68.7501V26.7537C-0.00206627 25.7428 0.258635 24.7491 0.755895 23.8727C1.25315 22.9962 1.96944 22.2679 2.8327 21.761L38.7358 0.771276C39.5996 0.266004 40.5794 0 41.5768 0C42.5743 0 43.5541 0.266004 44.4179 0.771276L80.3042 21.778C81.1675 22.2849 81.8838 23.0132 82.381 23.8897C82.8783 24.7661 83.139 25.7597 83.1369 26.7707V68.7501C83.139 69.761 82.8783 70.7546 82.381 71.6311C81.8838 72.5075 81.1675 73.2358 80.3042 73.7428L44.4179 94.7325C43.5541 95.2377 42.5743 95.5037 41.5768 95.5037C40.5794 95.5037 39.5996 95.2377 38.7358 94.7325Z" fill="#111111"/>
<path d="M33.9814 69.0738C32.8046 69.0738 31.851 68.106 31.851 66.9137V29.3623C31.851 28.1718 32.299 27.3851 33.3161 26.789L48.7459 17.7531C49.7639 17.157 50.6607 17.157 51.6786 17.7531L58.9932 22.0369C60.0103 22.633 60.4583 23.4197 60.4583 24.6102V66.9134C60.4583 68.1057 59.5039 69.0727 58.3271 69.0727C57.1503 69.0727 56.1959 68.1057 56.1959 66.9134V25.3864L50.2117 21.8817L36.1136 30.1385V66.9123C36.1136 68.1046 35.1591 69.0716 33.9824 69.0716L33.9814 69.0738ZM33.9822 78.578C33.5811 78.578 33.2058 78.4679 32.8848 78.2723L25.2016 73.7726C24.1844 73.1764 23.7365 72.3898 23.7365 71.1992V24.6128C23.7365 23.4222 24.1845 22.6356 25.2016 22.0394L32.8848 17.5397C33.2058 17.3441 33.5811 17.2315 33.9822 17.2315C35.159 17.2315 36.1134 18.1985 36.1134 19.3908C36.1134 20.2036 35.6697 20.9116 35.0145 21.2799L27.9982 25.3884V70.4211L35.0145 74.5296C35.6697 74.8979 36.1134 75.6058 36.1134 76.4187C36.1134 77.611 35.159 78.578 33.9822 78.578ZM42.0981 78.5805C40.9214 78.5805 39.9678 77.6125 39.9678 76.4202V53.127C39.9678 51.9365 40.4158 51.1498 41.4329 50.5537L49.1379 46.0353C49.4738 45.8388 49.8399 45.7457 50.2017 45.7457C50.938 45.7457 51.6543 46.1327 52.0488 46.8254C52.2427 47.1657 52.3346 47.5366 52.3346 47.9032L52.3447 71.6678C52.3447 72.8601 51.3902 73.8271 50.2134 73.8271C49.0367 73.8271 48.0822 72.8601 48.0822 71.6678V51.6474L44.2293 53.904V76.421C44.2293 77.6133 43.2748 78.5803 42.0981 78.5803L42.0981 78.5805ZM42.0981 45.3121C40.9214 45.3121 39.9678 44.3441 39.9678 43.1518V34.1159C39.9678 32.9254 40.4166 32.1396 41.4337 31.5426L49.1387 27.0242C49.4747 26.8278 49.8407 26.7347 50.2026 26.7347C50.9389 26.7347 51.6551 27.1217 52.0496 27.8143C52.2436 28.1547 52.3355 28.5255 52.3355 28.8921L52.3455 38.3997C52.3455 39.5919 51.3902 40.5589 50.2134 40.5589C49.0367 40.5589 48.0822 39.5919 48.0822 38.3997V32.6366L44.2293 34.8932V43.1526C44.2293 44.3448 43.2748 45.3119 42.0981 45.3119L42.0981 45.3121Z" fill="white"/>
</svg>
